<?xml version="1.0" standalone="no"?>
<!DOCTYPE svg PUBLIC "-//W3C//DTD SVG 20010904//EN"
 "http://www.w3.org/TR/2001/REC-SVG-20010904/DTD/svg10.dtd">
<svg version="1.0" xmlns="http://www.w3.org/2000/svg"
 width="4096.000000pt" height="4096.000000pt" viewBox="0 0 4096.000000 4096.000000"
 preserveAspectRatio="xMidYMid meet">
<metadata>
Created by potrace 1.14, written by Peter Selinger 2001-2017
</metadata>
<g transform="translate(0.000000,4096.000000) scale(0.100000,-0.100000)"
fill="#000000" stroke="none">
<path d="M15791 33900 l-34 -30 -943 0 c-532 0 -953 -4 -966 -9 -17 -6 -35
-34 -62 -92 -20 -46 -41 -92 -46 -101 -5 -9 -25 -59 -45 -110 -20 -51 -47
-116 -60 -143 -14 -28 -25 -53 -25 -57 0 -8 -137 -336 -151 -362 -6 -10 -17
-35 -24 -55 -8 -20 -28 -70 -45 -111 -18 -41 -47 -113 -66 -160 -19 -47 -39
-94 -45 -104 -6 -11 -20 -44 -30 -74 -10 -30 -23 -60 -28 -66 -4 -6 -14 -29
-21 -51 -7 -22 -16 -44 -20 -50 -7 -10 -72 -166 -131 -315 -17 -41 -41 -98
-55 -126 -13 -28 -24 -55 -24 -60 0 -5 -11 -31 -24 -59 -13 -27 -55 -124 -92
-215 -68 -168 -110 -270 -144 -350 -23 -55 -65 -155 -115 -275 -21 -49 -48
-114 -61 -144 -13 -29 -24 -59 -24 -65 0 -7 -9 -30 -21 -51 -11 -22 -27 -56
-34 -75 -7 -19 -30 -73 -50 -120 -20 -47 -50 -119 -66 -160 -17 -41 -39 -93
-49 -115 -11 -22 -31 -71 -45 -110 -14 -38 -30 -78 -35 -87 -6 -10 -29 -64
-51 -120 -23 -57 -45 -107 -49 -113 -4 -5 -13 -28 -20 -50 -7 -22 -17 -45 -21
-51 -5 -6 -18 -35 -28 -65 -10 -30 -26 -67 -35 -84 -9 -16 -16 -34 -16 -38 0
-5 -7 -23 -14 -40 -13 -27 -61 -143 -148 -352 -11 -27 -27 -66 -35 -85 -9 -19
-31 -73 -50 -120 -18 -47 -40 -98 -48 -115 -8 -16 -28 -64 -45 -105 -17 -41
-40 -95 -50 -120 -129 -304 -160 -381 -160 -390 0 -6 -9 -28 -20 -48 -11 -20
-33 -71 -50 -112 -17 -41 -40 -95 -50 -120 -130 -308 -160 -381 -160 -392 0
-8 -7 -23 -15 -35 -9 -12 -22 -39 -30 -60 -7 -21 -27 -69 -43 -108 -17 -38
-49 -115 -72 -170 -23 -55 -53 -127 -65 -160 -13 -33 -30 -73 -39 -90 -9 -16
-16 -36 -16 -44 0 -7 -9 -30 -20 -50 -10 -20 -42 -92 -70 -161 -28 -69 -59
-145 -70 -170 -10 -25 -33 -79 -50 -120 -36 -87 -50 -121 -120 -285 -28 -66
-58 -138 -67 -160 -8 -22 -28 -69 -43 -105 -16 -36 -41 -96 -56 -135 -14 -38
-41 -102 -60 -142 -19 -40 -34 -76 -34 -79 0 -4 -13 -37 -29 -73 -16 -36 -44
-102 -62 -146 -61 -152 -127 -310 -154 -370 -15 -33 -35 -82 -45 -110 -10 -27
-25 -63 -34 -80 -9 -16 -16 -35 -16 -41 0 -6 -18 -50 -40 -98 -22 -47 -56
-128 -76 -178 -20 -51 -39 -97 -44 -103 -4 -5 -13 -28 -20 -50 -7 -22 -21 -54
-31 -71 -11 -17 -19 -36 -19 -42 0 -6 -32 -87 -71 -179 -99 -237 -109 -262
-136 -320 -13 -28 -23 -55 -23 -60 0 -4 -11 -30 -24 -58 -25 -54 -76 -174
-133 -320 -20 -49 -44 -108 -54 -130 -10 -22 -32 -74 -49 -115 -17 -41 -37
-88 -45 -105 -18 -38 -87 -204 -132 -320 -19 -49 -41 -101 -48 -115 -23 -46
-189 -443 -211 -505 -8 -22 -21 -53 -29 -70 -8 -16 -29 -64 -46 -105 -17 -41
-39 -93 -49 -115 -10 -22 -29 -71 -44 -110 -15 -38 -33 -81 -40 -95 -8 -14
-28 -63 -46 -110 -17 -47 -40 -103 -50 -125 -37 -78 -120 -273 -120 -281 0 -5
-6 -21 -14 -36 -8 -14 -19 -43 -26 -65 -7 -21 -18 -47 -25 -58 -6 -11 -26 -58
-44 -105 -18 -47 -43 -107 -56 -135 -51 -110 -65 -145 -65 -157 0 -7 -9 -27
-19 -45 -11 -17 -24 -46 -29 -65 -6 -18 -27 -71 -47 -118 -20 -47 -50 -119
-66 -160 -17 -41 -36 -88 -44 -105 -24 -51 -85 -198 -165 -395 -28 -69 -60
-141 -71 -161 -10 -20 -19 -42 -19 -49 0 -7 -9 -31 -19 -54 -30 -63 -77 -174
-105 -246 -14 -36 -39 -97 -57 -135 -17 -39 -39 -94 -50 -123 -10 -28 -25 -62
-33 -74 -9 -12 -16 -29 -16 -36 0 -8 -14 -46 -31 -85 -47 -107 -64 -147 -83
-197 -20 -50 -51 -125 -90 -214 -14 -32 -26 -63 -26 -70 0 -6 -7 -24 -16 -41
-9 -16 -31 -67 -50 -113 -19 -46 -42 -102 -53 -125 -10 -23 -30 -73 -45 -112
-15 -38 -38 -93 -52 -120 -13 -28 -24 -55 -24 -60 0 -6 -6 -22 -14 -37 -8 -14
-19 -43 -26 -65 -7 -21 -16 -42 -20 -48 -5 -5 -27 -57 -50 -115 -23 -58 -46
-109 -50 -115 -4 -5 -13 -26 -18 -45 -6 -19 -25 -69 -42 -110 -18 -41 -43
-100 -55 -130 -13 -30 -44 -104 -70 -165 -26 -60 -63 -150 -82 -200 -19 -49
-43 -108 -54 -130 -10 -22 -53 -123 -94 -225 -42 -102 -84 -203 -94 -225 -10
-22 -29 -67 -41 -100 -13 -33 -45 -112 -72 -175 -63 -148 -80 -189 -118 -280
-17 -41 -39 -95 -50 -120 -10 -25 -31 -76 -46 -115 -14 -38 -44 -108 -65 -154
-22 -46 -39 -89 -39 -95 0 -7 -9 -29 -20 -51 -11 -21 -25 -54 -31 -74 -6 -20
-15 -40 -19 -46 -5 -5 -35 -78 -69 -161 -33 -82 -67 -163 -76 -180 -8 -16 -15
-33 -15 -37 0 -5 -13 -39 -29 -75 -15 -37 -58 -139 -95 -227 -37 -88 -76 -180
-86 -205 -11 -25 -33 -79 -50 -120 -17 -41 -40 -95 -50 -120 -10 -25 -49 -115
-85 -200 -36 -85 -65 -159 -65 -164 0 -6 -11 -33 -24 -61 -14 -27 -36 -77 -50
-110 -13 -33 -54 -130 -90 -215 -35 -85 -82 -200 -104 -255 -22 -55 -57 -138
-77 -185 -33 -78 -65 -154 -132 -315 -24 -58 -38 -92 -81 -200 -11 -27 -35
-81 -52 -120 -17 -38 -47 -110 -66 -160 -19 -49 -41 -101 -48 -115 -8 -14 -26
-56 -41 -95 -15 -38 -55 -133 -88 -210 -32 -77 -79 -187 -102 -245 -101 -246
-223 -539 -241 -575 -14 -30 -68 -161 -126 -305 -16 -41 -42 -104 -58 -140
-16 -36 -40 -94 -55 -130 -14 -36 -32 -78 -40 -95 -7 -16 -16 -41 -20 -55 -4
-14 -11 -29 -15 -35 -7 -9 -73 -166 -120 -285 -20 -51 -54 -131 -75 -175 -8
-16 -26 -61 -40 -100 -15 -38 -43 -106 -62 -150 -20 -44 -44 -104 -54 -134
-11 -30 -23 -59 -27 -65 -5 -6 -14 -24 -20 -41 -6 -16 -25 -64 -42 -105 -51
-119 -124 -298 -159 -385 -17 -44 -40 -98 -51 -120 -10 -22 -35 -80 -55 -130
-19 -49 -40 -98 -45 -107 -5 -9 -25 -56 -44 -105 -19 -48 -51 -126 -71 -173
-20 -47 -40 -96 -45 -110 -5 -14 -25 -63 -45 -110 -20 -47 -51 -123 -70 -170
-33 -83 -76 -184 -95 -225 -6 -11 -16 -38 -24 -60 -8 -22 -36 -89 -61 -150
-26 -60 -66 -157 -90 -215 -23 -58 -57 -139 -75 -180 -17 -41 -38 -93 -46
-115 -8 -22 -21 -53 -29 -70 -8 -16 -37 -86 -65 -155 -28 -69 -58 -140 -66
-158 -19 -44 -18 -59 5 -72 14 -7 1898 -9 6050 -8 l6029 3 74 70 c70 66 173
163 403 378 55 51 197 185 315 297 118 112 264 249 324 304 59 56 138 130 175
166 36 35 91 87 121 114 30 27 222 207 426 400 203 193 426 403 494 466 68 63
216 202 329 309 344 325 384 362 501 471 63 58 251 236 420 395 168 160 359
340 425 400 65 61 252 236 415 390 162 154 351 332 420 395 112 104 390 365
626 589 49 47 144 136 210 197 65 62 297 280 515 485 218 206 454 428 525 494
71 66 170 159 219 206 50 47 230 218 400 379 171 162 360 341 420 399 115 110
221 210 421 396 65 61 164 153 219 206 55 53 149 143 210 200 181 171 279 265
511 486 122 116 231 214 244 218 32 10 43 -6 90 -128 22 -60 47 -118 54 -130
8 -12 17 -38 21 -57 4 -19 11 -39 15 -45 4 -5 13 -28 20 -50 7 -22 20 -53 30
-70 10 -16 33 -73 50 -125 18 -52 36 -99 40 -105 5 -5 29 -64 55 -130 66 -170
79 -201 114 -285 31 -72 57 -140 86 -225 7 -22 30 -78 50 -125 20 -47 41 -98
46 -115 6 -16 16 -41 23 -55 8 -14 19 -43 26 -65 7 -22 19 -51 26 -65 7 -14
25 -56 39 -95 15 -38 37 -95 51 -126 13 -31 24 -61 24 -67 0 -9 31 -83 70
-167 10 -22 30 -74 45 -115 15 -41 40 -105 56 -141 16 -36 29 -70 29 -76 0 -6
6 -24 14 -40 8 -15 36 -84 62 -153 25 -69 55 -139 65 -157 10 -18 22 -47 28
-65 14 -46 59 -158 78 -192 9 -16 19 -43 24 -60 4 -17 22 -67 39 -111 18 -44
39 -98 47 -120 8 -22 23 -58 34 -81 10 -22 19 -47 19 -56 0 -9 6 -21 14 -27 8
-7 17 -27 21 -44 6 -30 35 -104 76 -192 10 -22 21 -53 25 -70 4 -16 13 -41 20
-55 8 -14 21 -45 30 -70 9 -25 22 -63 30 -85 8 -22 23 -58 33 -80 29 -61 71
-161 71 -171 0 -4 20 -56 44 -114 23 -58 49 -121 56 -140 15 -44 51 -139 80
-210 12 -30 28 -62 36 -71 8 -8 14 -23 14 -32 0 -9 16 -56 36 -104 20 -48 45
-110 56 -138 10 -27 26 -64 33 -82 8 -17 15 -36 15 -43 0 -6 9 -28 19 -48 11
-20 34 -75 51 -121 17 -46 40 -100 51 -120 10 -20 19 -43 19 -51 1 -8 9 -33
20 -55 11 -22 19 -46 20 -54 0 -7 11 -34 24 -60 14 -25 38 -84 55 -131 16 -47
55 -146 86 -220 32 -74 65 -157 75 -185 10 -27 32 -84 49 -125 18 -41 46 -111
63 -155 16 -44 36 -93 44 -110 22 -49 65 -157 79 -200 7 -22 20 -53 29 -70 9
-16 16 -36 16 -42 0 -7 11 -36 24 -65 54 -121 66 -149 66 -160 0 -6 8 -30 18
-52 10 -23 29 -68 42 -101 12 -33 35 -87 50 -120 15 -33 32 -76 39 -95 35 -96
62 -164 70 -174 5 -6 14 -27 19 -46 14 -46 53 -148 87 -230 15 -36 35 -86 45
-112 9 -26 21 -53 27 -60 6 -7 16 -29 21 -48 17 -55 62 -171 77 -199 15 -27
36 -81 62 -164 9 -28 30 -62 51 -83 l37 -36 5043 5 c4844 4 5043 5 5062 22 27
24 25 46 -10 140 -17 44 -51 139 -76 210 -93 263 -124 352 -150 420 -14 39
-34 97 -45 130 -10 33 -24 69 -30 80 -7 11 -18 40 -25 65 -7 25 -26 81 -42
125 -16 44 -54 150 -85 235 -30 85 -71 200 -92 255 -20 55 -45 125 -55 155
-10 30 -33 91 -50 135 -17 44 -38 103 -45 130 -8 28 -19 59 -24 70 -11 22 -44
114 -68 190 -8 28 -19 55 -23 60 -4 6 -29 71 -55 145 -25 74 -64 186 -86 249
-22 63 -43 120 -48 125 -4 6 -13 29 -19 51 -20 74 -62 188 -73 202 -7 7 -18
37 -25 66 -18 72 -51 167 -68 198 -9 14 -20 43 -25 65 -5 21 -24 77 -41 124
-18 47 -49 136 -71 199 -22 62 -43 118 -47 125 -4 6 -25 65 -48 131 -91 266
-178 507 -189 524 -4 7 -13 34 -21 59 -7 26 -25 79 -39 117 -15 39 -45 124
-69 190 -23 67 -46 127 -50 134 -5 7 -14 34 -22 59 -21 73 -61 188 -73 208 -6
11 -29 72 -51 137 -93 273 -122 354 -136 384 -7 17 -14 36 -14 41 0 10 -34
100 -79 212 -10 25 -28 79 -41 120 -12 41 -29 91 -37 110 -9 19 -24 60 -34 90
-9 30 -29 87 -44 125 -14 39 -35 95 -45 125 -10 30 -33 91 -50 135 -18 44 -38
100 -46 125 -7 25 -27 83 -45 130 -17 47 -49 135 -70 195 -21 61 -50 142 -65
180 -49 130 -85 230 -94 260 -4 17 -25 75 -45 130 -46 127 -63 174 -110 310
-21 61 -48 130 -61 155 -13 25 -24 51 -24 59 0 16 -44 149 -64 196 -8 17 -28
73 -45 125 -17 52 -37 104 -43 115 -6 11 -17 40 -24 65 -25 87 -62 186 -83
225 -12 22 -21 47 -21 55 0 18 -28 99 -105 305 -31 83 -62 170 -69 195 -7 25
-20 59 -28 75 -9 17 -19 46 -23 65 -4 19 -16 51 -25 70 -10 19 -34 82 -53 140
-43 132 -65 195 -84 240 -9 19 -21 55 -28 80 -7 25 -25 77 -40 115 -15 39 -36
95 -46 125 -11 30 -24 64 -29 75 -5 11 -14 36 -19 55 -5 19 -26 80 -46 135
-20 55 -40 112 -45 126 -4 14 -13 37 -20 50 -7 13 -19 44 -26 69 -25 84 -64
194 -78 215 -7 11 -16 38 -20 59 -4 21 -13 48 -21 60 -7 12 -15 36 -19 55 -3
19 -22 75 -42 125 -36 91 -62 160 -91 246 -24 71 -53 150 -78 210 -12 30 -33
89 -45 130 -13 41 -33 100 -46 131 -13 31 -24 61 -24 68 0 12 -42 123 -70 186
-10 22 -22 58 -28 80 -5 22 -24 76 -42 120 -17 44 -46 125 -65 180 -18 55 -50
143 -70 195 -20 52 -41 111 -47 130 -5 19 -16 49 -23 65 -7 17 -20 50 -28 75
-9 25 -29 83 -47 130 -17 47 -37 105 -44 130 -7 25 -19 56 -25 69 -7 12 -19
44 -26 69 -7 26 -25 79 -40 117 -15 39 -47 126 -72 195 -25 69 -58 161 -75
205 -16 44 -34 98 -39 120 -6 21 -14 44 -19 50 -10 12 -57 143 -71 200 -6 22
-16 47 -24 55 -7 8 -20 40 -28 70 -25 89 -47 152 -73 206 -13 28 -24 56 -24
62 0 15 -38 126 -106 307 -31 83 -62 170 -69 195 -8 25 -27 79 -43 120 -17 41
-35 91 -42 110 -7 19 -21 58 -31 85 -11 28 -19 56 -19 64 0 7 -11 39 -24 70
-13 31 -31 76 -39 101 -8 25 -27 77 -42 115 -14 39 -32 90 -40 115 -8 25 -26
77 -41 115 -40 104 -84 226 -94 260 -15 53 -67 189 -84 220 -9 17 -16 39 -16
50 0 11 -9 38 -20 60 -11 22 -19 49 -20 61 0 11 -11 43 -25 69 -13 27 -27 63
-30 79 -4 17 -15 55 -26 83 -11 29 -28 76 -38 105 -11 29 -31 87 -46 128 -15
41 -35 93 -45 115 -10 22 -30 78 -44 125 -15 47 -38 110 -51 140 -13 30 -36
96 -51 145 -15 50 -31 97 -36 105 -5 8 -17 40 -27 70 -34 101 -53 155 -69 190
-9 19 -21 55 -28 80 -7 25 -24 77 -39 115 -43 109 -85 226 -100 275 -7 25 -25
74 -38 110 -63 161 -80 208 -92 253 -8 26 -17 52 -21 59 -10 15 -62 162 -79
221 -7 26 -18 54 -24 60 -5 7 -14 31 -20 52 -12 49 -55 165 -82 221 -10 22
-19 48 -19 57 0 9 -6 31 -14 49 -8 18 -21 53 -29 78 -9 25 -29 83 -47 130 -17
47 -35 99 -39 115 -5 17 -15 46 -24 65 -8 19 -22 55 -30 80 -27 83 -39 115
-62 165 -13 28 -26 66 -30 85 -7 37 -32 107 -70 200 -13 30 -37 96 -53 145
-17 50 -44 128 -62 175 -17 47 -37 104 -45 128 -8 23 -21 52 -30 64 -8 13 -15
33 -15 46 0 13 -8 42 -19 65 -10 23 -22 58 -26 77 -4 19 -14 46 -21 60 -14 25
-43 103 -70 190 -26 86 -54 165 -66 185 -11 19 -47 120 -73 205 -7 25 -30 88
-50 140 -20 52 -40 109 -44 125 -5 17 -15 44 -23 60 -9 17 -28 71 -44 120 -15
50 -38 108 -50 130 -12 22 -25 56 -28 75 -4 19 -13 51 -20 70 -14 38 -28 77
-86 245 -21 61 -45 124 -54 140 -9 17 -16 39 -16 50 0 11 -6 32 -14 46 -7 15
-22 51 -31 80 -10 30 -26 65 -35 79 -9 14 -20 44 -23 66 -4 23 -14 54 -22 70
-8 16 -15 37 -15 47 0 10 -7 32 -16 48 -16 33 -56 143 -78 221 -8 25 -21 57
-30 69 -9 13 -16 33 -16 45 0 22 -44 141 -81 220 -10 22 -19 47 -19 55 -1 8
-14 52 -31 99 -17 47 -40 112 -51 145 -12 33 -27 69 -35 80 -7 11 -13 30 -13
43 0 12 -8 39 -19 60 -10 20 -22 53 -26 72 -4 19 -18 55 -31 79 -13 24 -24 53
-24 65 0 11 -9 36 -20 54 -11 18 -20 42 -20 55 0 12 -10 42 -21 66 -11 25 -24
61 -28 80 -12 48 -47 146 -71 196 -10 22 -31 81 -46 130 -15 50 -37 108 -50
130 -12 22 -25 57 -28 77 -4 20 -13 50 -21 65 -8 15 -15 36 -15 46 0 11 -7 31
-15 45 -8 15 -24 54 -34 87 -35 109 -61 178 -70 189 -5 6 -12 29 -16 51 -4 22
-16 56 -26 75 -9 20 -20 53 -24 73 -4 20 -15 47 -25 60 -9 12 -22 42 -28 67
-13 53 -38 133 -56 175 -7 17 -30 80 -51 140 -21 61 -44 119 -51 130 -8 11
-14 27 -14 36 0 17 -57 172 -86 236 -8 17 -14 39 -14 50 0 10 -9 38 -20 62
-11 24 -20 51 -20 60 0 9 -9 35 -20 56 -12 22 -26 60 -32 85 -6 25 -19 59 -29
76 -11 17 -19 41 -19 52 0 12 -8 41 -19 64 -10 24 -26 66 -36 93 -10 28 -29
79 -42 115 -14 36 -31 87 -38 114 -15 53 -36 81 -77 102 -23 12 -848 14 -5610
14 l-5583 0 -34 -30z m3812 -9667 c8 -10 19 -31 23 -48 4 -16 13 -41 20 -55 7
-14 30 -68 50 -120 20 -52 44 -109 55 -126 10 -17 19 -40 19 -50 1 -11 9 -37
20 -59 11 -22 19 -44 20 -49 0 -5 13 -39 29 -75 16 -36 39 -93 52 -126 12 -33
28 -73 35 -90 14 -31 44 -106 96 -240 17 -44 44 -114 61 -155 16 -41 38 -97
49 -125 10 -27 25 -63 32 -80 19 -41 95 -231 112 -280 8 -22 21 -52 29 -67 8
-14 15 -31 15 -38 0 -6 13 -42 28 -78 16 -37 41 -101 57 -142 16 -41 32 -79
36 -85 3 -5 14 -36 24 -69 10 -32 36 -93 57 -134 21 -42 38 -83 38 -90 0 -13
16 -56 65 -172 12 -30 32 -82 44 -115 12 -33 31 -78 41 -100 11 -22 27 -62 36
-90 9 -27 34 -87 55 -132 22 -46 39 -87 39 -93 0 -6 32 -93 71 -193 94 -242
107 -273 135 -333 13 -28 24 -57 24 -65 0 -8 9 -28 19 -45 10 -17 22 -46 26
-65 4 -18 12 -40 16 -49 9 -15 87 -207 119 -290 9 -25 24 -62 33 -84 9 -21 17
-41 17 -44 0 -3 11 -28 24 -56 13 -28 29 -67 36 -86 6 -19 17 -48 22 -65 12
-33 50 -127 79 -193 11 -23 19 -48 19 -55 0 -7 11 -33 25 -59 14 -26 25 -53
25 -60 0 -7 6 -24 13 -39 8 -14 21 -47 30 -74 9 -26 23 -56 31 -64 8 -9 19
-34 25 -56 13 -55 57 -173 69 -188 6 -7 24 -53 41 -103 18 -50 41 -109 51
-130 11 -21 20 -46 20 -56 0 -9 9 -34 19 -55 28 -55 81 -180 81 -190 0 -5 16
-47 36 -93 19 -47 42 -103 50 -125 8 -22 18 -49 24 -60 5 -11 21 -51 35 -90
15 -38 40 -101 56 -140 37 -86 63 -150 76 -190 14 -41 91 -233 108 -270 8 -16
21 -50 30 -75 35 -99 54 -147 74 -185 12 -21 21 -46 21 -55 0 -9 6 -24 14 -35
20 -30 42 -124 30 -134 -15 -14 -5939 -22 -5953 -8 -23 23 -10 67 74 252 15
33 40 89 55 125 15 36 52 124 83 195 30 72 87 207 127 300 39 94 77 184 85
200 7 17 28 64 46 105 17 41 40 94 50 117 11 23 19 45 19 49 0 4 8 26 19 48
58 125 140 317 238 556 19 47 41 99 48 115 35 75 125 287 150 350 15 39 32 79
39 90 6 11 24 54 40 95 15 41 36 93 46 115 10 22 33 70 49 106 17 36 31 70 31
76 0 6 7 24 15 40 8 15 28 62 45 103 17 41 37 88 46 105 8 16 31 68 49 115 39
100 68 169 94 225 11 22 28 63 39 90 12 28 44 102 71 166 28 65 51 120 51 124
0 4 7 21 14 38 48 103 114 256 151 347 23 58 59 143 79 190 20 47 46 105 56
130 72 170 93 216 101 224 5 6 9 16 9 24 0 13 80 208 191 462 28 63 59 135 69
160 11 25 44 104 76 175 31 72 65 154 75 184 10 30 23 59 27 65 5 6 17 34 27
61 10 28 21 55 25 60 5 6 24 51 44 102 19 50 42 106 50 125 24 52 115 267 142
333 13 33 32 74 40 90 9 17 29 64 45 105 45 120 89 224 100 235 5 5 9 18 9 29
0 10 11 42 24 70 14 28 38 81 55 119 31 69 46 80 74 50z"/>
</g>
</svg>
